<svg width="32" height="32" viewBox="0 0 32 32" fill="none" xmlns="http://www.w3.org/2000/svg">
<circle cx="16" cy="16" r="16" fill="#F4F4F4"/>
<path d="M9.20896 14.1718C9.84056 10.8053 12.7533 8.36024 16.1363 8.36024C19.0927 8.36024 21.7568 10.2748 22.7613 13.0667L21.3571 12.2743L20.7019 13.4611L23.7457 15.1818L25.9999 12.4001L24.9618 11.5364L24.0447 12.6654C22.8588 9.26479 19.7176 7 16.1363 7C12.0075 7 8.52362 9.99252 7.85171 14.114L7.81812 14.3113H9.18209L9.20896 14.1718Z" fill="#A5A5A5"/>
<path d="M23.6439 16.9483C22.9903 20.3849 19.9564 22.8808 16.4367 22.8808C13.4833 22.8808 10.8269 21.1069 9.68397 18.4236L10.8304 19.0589L11.512 17.8474L8.34529 16.0909L6 18.9305L7.08002 19.8122L8.1985 18.4584C9.42532 21.947 12.6968 24.2728 16.4367 24.2728C20.7324 24.2728 24.3569 21.218 25.056 17.0108L25.0909 16.8095H23.6719L23.6439 16.9518V16.9483Z" fill="#A5A5A5"/>
</svg>
