<svg width="43" height="43" viewBox="0 0 43 43" fill="none" xmlns="http://www.w3.org/2000/svg">
<circle cx="21.5" cy="21.5" r="21.5" fill="#FFB6CE"/>
<g clip-path="url(#clip0_34_1020)">
<path d="M20.9164 34.0941C19.1661 34.0941 17.5497 33.6615 16.1068 32.8054C11.0351 29.797 9.92983 22.4526 13.6455 16.4339C16.2143 12.2717 20.4788 9.68677 24.7716 9.68677C26.5219 9.68677 28.1383 10.1194 29.5812 10.9756C34.653 13.9839 35.7582 21.3283 32.0426 27.347C29.4737 31.5092 25.2111 34.096 20.9164 34.096V34.0941Z" fill="#EF6A9D"/>
<path d="M24.7717 9.13208V10.2415C26.4164 10.2415 27.9347 10.6483 29.2871 11.4489C34.0929 14.2983 35.1114 21.3006 31.558 27.0586C30.3263 29.0555 28.6552 30.716 26.7257 31.8605C24.8736 32.9589 22.8649 33.5395 20.9165 33.5395C19.2718 33.5395 17.7516 33.1327 16.4012 32.332C14.1076 30.9711 12.5969 28.6228 12.1461 25.718C11.684 22.7373 12.3894 19.544 14.1303 16.7224C15.3619 14.7254 17.033 13.065 18.9625 11.9204C20.8147 10.8221 22.8234 10.2415 24.7717 10.2415V9.13208ZM24.7717 9.13208C20.4544 9.13208 15.907 11.7004 13.1608 16.1492C9.2792 22.4396 10.4656 30.1113 15.8146 33.2824C17.38 34.2107 19.1285 34.6507 20.9165 34.6507C25.2338 34.6507 29.7812 32.0824 32.5274 27.6336C36.409 21.3432 35.2227 13.6715 29.8737 10.5004C28.3082 9.57215 26.5598 9.13208 24.7717 9.13208Z" fill="#971A4A"/>
<path d="M17.2047 31.8937C15.4544 31.8937 13.838 31.461 12.3951 30.6049C7.32333 27.5965 6.21996 20.2521 9.93371 14.2335C12.5026 10.0713 16.7671 7.4845 21.0599 7.4845C22.8102 7.4845 24.4266 7.91717 25.8695 8.77328C30.9412 11.7817 32.0465 19.1261 28.3308 25.1447C25.762 29.3069 21.4994 31.8937 17.2047 31.8937Z" fill="#FF8FB4"/>
<path d="M21.0596 6.92981V8.03924C22.7043 8.03924 24.2226 8.44603 25.5749 9.24666C27.8685 10.6076 29.3792 12.9558 29.83 15.8607C30.2921 18.8413 29.5867 22.0346 27.8458 24.8563C26.6142 26.8533 24.9431 28.5137 23.0136 29.6583C21.1614 30.7566 19.1527 31.3372 17.2044 31.3372C15.5597 31.3372 14.0395 30.9304 12.689 30.1298C7.88321 27.2804 6.86471 20.2781 10.4181 14.5201C11.6498 12.5232 13.3209 10.8627 15.2504 9.71817C17.1025 8.61984 19.1112 8.03924 21.0596 8.03924V6.92981ZM21.0596 6.92981C16.7423 6.92981 12.1949 9.49813 9.45057 13.9469C5.56707 20.2374 6.75532 27.9072 12.1024 31.0802C13.6679 32.0084 15.4163 32.4485 17.2044 32.4485C21.5217 32.4485 26.0691 29.8801 28.8153 25.4313C32.6969 19.1409 31.5105 11.4692 26.1615 8.2981C24.596 7.36988 22.8476 6.92981 21.0596 6.92981Z" fill="#971A4A"/>
<path d="M12.1603 30.2363L11.7698 30.8691L16.4111 33.6215L16.8016 32.9887L12.1603 30.2363Z" fill="#971A4A"/>
<path d="M26.1116 8.29829L25.5259 9.24756L30.1672 12L30.753 11.0507L26.1116 8.29829Z" fill="#971A4A"/>
<path d="M29.9749 12.6099L29.3892 13.5592L32.9977 15.6991L33.5834 14.7499L29.9749 12.6099Z" fill="#971A4A"/>
<path d="M30.73 16.3078L30.1443 17.2571L33.7528 19.397L34.3385 18.4477L30.73 16.3078Z" fill="#971A4A"/>
<path d="M30.7288 20.3751L30.1431 21.3243L33.7516 23.4643L34.3373 22.515L30.7288 20.3751Z" fill="#971A4A"/>
<path d="M28.6543 24.8117L28.0686 25.761L31.6771 27.9009L32.2628 26.9516L28.6543 24.8117Z" fill="#971A4A"/>
<path d="M25.2596 28.3259L24.6738 29.2751L28.2823 31.4151L28.8681 30.4658L25.2596 28.3259Z" fill="#971A4A"/>
<path d="M21.8655 30.3588L21.2798 31.3081L24.8883 33.448L25.474 32.4988L21.8655 30.3588Z" fill="#971A4A"/>
<path d="M18.47 31.4696L17.8843 32.4188L21.4928 34.5587L22.0785 33.6095L18.47 31.4696Z" fill="#971A4A"/>
<path d="M17.0123 16.286L16.6785 17.9039H14.8754L13.938 22.4822H11.8463L12.7837 17.9039H10.99L11.3238 16.286H17.0142H17.0123Z" fill="#971A4A"/>
<path d="M19.6001 16.286L18.3383 22.4822H16.2466L17.5084 16.286H19.6001Z" fill="#971A4A"/>
<path d="M26.9219 16.286L24.1267 18.858L25.7223 22.4822H23.2968L22.431 20.4057L21.6012 21.1749L21.3314 22.484H19.2397L20.5016 16.2879H22.5933L22.133 18.5418L24.4322 16.2879H26.9219V16.286Z" fill="#971A4A"/>
</g>
<defs>
<clipPath id="clip0_34_1020">
<rect width="27.6429" height="27.719" fill="white" transform="translate(7.16675 6.92981)"/>
</clipPath>
</defs>
</svg>
