<svg width="98" height="20" viewBox="0 0 98 20" fill="none" xmlns="http://www.w3.org/2000/svg">
<g clip-path="url(#clip0_10_921)">
<path d="M12.8712 0.0841675H0V2.93216H4.86279V15.4799H8.00841V2.93216H12.8712V0.0841675Z" fill="black"/>
<path d="M19.9115 5.75125C19.2081 4.87186 17.9336 4.30402 16.5993 4.30402H16.5471C13.0822 4.30402 10.8423 6.54397 10.8423 10.0113C10.8423 11.8191 11.3969 13.3128 12.4463 14.3304C13.4409 15.2952 14.835 15.8053 16.4797 15.8053H16.5357C17.7212 15.7839 19.1738 15.245 19.9115 14.2487V15.4812H22.8167V4.56281H19.9115V5.75125ZM19.8683 10.0214C19.8683 11.5188 18.9207 13.1306 16.841 13.1306C15.0335 13.1306 13.7704 11.848 13.7704 10.0113C13.7704 8.17462 15.0335 6.91331 16.841 6.91331C18.9207 6.91331 19.8683 8.52512 19.8683 10.0226V10.0214Z" fill="black"/>
<path d="M27.6999 0.1922H24.7947V2.93089H27.6999V0.1922Z" fill="black"/>
<path d="M27.7445 4.52008H24.8176V15.4799H27.7445V4.52008Z" fill="black"/>
<path d="M39.5942 4.88819V4.56282H36.2095L32.7598 8.62689V0.10553H29.833V15.4799H32.7598V10.8668L36.8022 15.4799H40.2073V15.1106L35.2351 9.70729L39.5942 4.88819Z" fill="black"/>
<path d="M49.5297 4.56281V5.75125C48.8263 4.87186 47.5518 4.30402 46.2174 4.30402H46.1653C42.7004 4.30402 40.4604 6.54397 40.4604 10.0113C40.4604 11.8191 41.015 13.3128 42.0644 14.3304C43.0591 15.2952 44.4532 15.8053 46.0979 15.8053H46.1539C47.3393 15.7839 48.7919 15.245 49.5297 14.2487V15.4812H52.4349V4.56281H49.5297ZM49.4864 10.0214C49.4864 11.5188 48.5388 13.1306 46.4591 13.1306C44.6516 13.1306 43.3886 11.848 43.3886 10.0113C43.3886 8.17462 44.6516 6.91331 46.4591 6.91331C48.5388 6.91331 49.4864 8.52512 49.4864 10.0226V10.0214Z" fill="black"/>
<path d="M66.5401 0C65.3355 0 64.1297 0.00502513 62.9251 0.0113065C61.7205 0.0163317 60.516 0.0226131 59.3114 0.0226131H59.1206V15.5427H62.3934V9.65829H66.5401C68.3285 9.65829 69.8333 9.13945 70.8915 8.15955C71.8366 7.28266 72.3569 6.10302 72.3569 4.83543C72.3569 2.50754 70.5367 0.00125628 66.5388 0.00125628L66.5401 0ZM62.3934 3.10302H66.5401C68.3107 3.10302 69.1171 4.02764 69.1171 4.88819C69.1171 5.34548 68.8971 5.77261 68.4964 6.09297C68.0283 6.46734 67.3516 6.66457 66.5388 6.66457H62.3921V3.10302H62.3934Z" fill="black"/>
<path d="M81.748 5.57411C81.0153 4.74999 79.8056 4.23994 78.5006 4.23994C76.8088 4.22989 75.3015 4.77889 74.27 5.79145C73.2295 6.81281 72.6787 8.27135 72.6787 10.01C72.6787 11.7487 73.2333 13.3266 74.2827 14.3555C75.2914 15.3442 76.7071 15.8668 78.3823 15.8668C78.4001 15.8668 78.4192 15.8668 78.437 15.8668C79.5805 15.8467 80.9682 15.3505 81.748 14.4296V15.5427H84.7804V4.49999H81.748V5.57411ZM81.7047 10.0213C81.7047 10.8241 81.4414 11.5703 80.9619 12.1219C80.4264 12.7399 79.6581 13.0666 78.741 13.0666C76.9424 13.0666 75.734 11.8379 75.734 10.01C75.734 8.18215 76.9424 6.97487 78.741 6.97487C80.7774 6.97487 81.7047 8.55401 81.7047 10.0213Z" fill="black"/>
<path d="M94.6254 4.5L92.603 9.29523L91.6731 11.7425L90.8146 9.23367L89.1266 4.5H85.5981L89.989 15.1796L87.8915 20H91.2419L98 4.5H94.6254Z" fill="black"/>
</g>
<defs>
<clipPath id="clip0_10_921">
<rect width="98" height="20" fill="white"/>
</clipPath>
</defs>
</svg>
